<svg width="40" height="40" viewBox="0 0 40 40" fill="none" xmlns="http://www.w3.org/2000/svg">
<rect width="40" height="40" rx="20" fill="white"/>
<path d="M12.6086 25V15.2H16.4166C17.3873 15.2 18.1479 15.4147 18.6986 15.844C19.2493 16.264 19.5246 16.8427 19.5246 17.58C19.5246 18.084 19.3799 18.518 19.0906 18.882C18.8106 19.2367 18.4513 19.5073 18.0126 19.694C19.2913 20.1793 19.9306 20.9773 19.9306 22.088C19.9306 22.9747 19.5946 23.684 18.9226 24.216C18.2599 24.7387 17.4433 25 16.4726 25H12.6086ZM14.1206 20.464V23.684H16.3186C17.6999 23.684 18.3906 23.1473 18.3906 22.074C18.3906 21.0007 17.6999 20.464 16.3186 20.464H14.1206ZM14.1206 16.516V19.148H16.3046C17.4806 19.148 18.0686 18.7093 18.0686 17.832C18.0686 16.9547 17.4806 16.516 16.3046 16.516H14.1206ZM21.134 27.8L21.358 26.498C21.582 26.5913 21.792 26.638 21.988 26.638C22.184 26.638 22.338 26.5867 22.45 26.484C22.5713 26.3907 22.6973 26.1947 22.828 25.896L23.15 25.042L20.322 18.056H21.96L23.92 23.068L25.866 18.056H27.448L24.088 26.4C23.6773 27.436 23.0286 27.954 22.142 27.954C21.75 27.954 21.414 27.9027 21.134 27.8Z" fill="#222222"/>
<rect x="0.5" y="0.5" width="39" height="39" rx="19.5" stroke="black" stroke-opacity="0.08"/>
</svg>
