<svg width="78" height="78" viewBox="0 0 78 78" fill="none" xmlns="http://www.w3.org/2000/svg">
<path d="M39 78C60.5391 78 78 60.5391 78 39C78 17.4609 60.5391 0 39 0C17.4609 0 0 17.4609 0 39C0 60.5391 17.4609 78 39 78Z" fill="#F7579F"/>
<path d="M10.687 30.155L27.2083 62.2148L29.2965 46.7377L38.6319 58.4684L35.8681 23.7676L29.8492 25.1802L34.5783 48.2117L26.9626 38.692L25.6728 51.344L16.6445 28.3125L10.687 30.155Z" fill="white"/>
<path d="M52.5679 44.5269C52.0151 38.9994 48.5144 34.8844 44.6451 35.2529C40.7758 35.6214 38.1348 40.412 38.6876 45.8781C39.2403 51.4057 42.7411 55.5206 46.6104 55.1521C50.4183 54.7836 53.1207 50.0545 52.5679 44.5269ZM46.1191 50.5458C44.338 50.7301 42.6797 48.6419 42.3726 45.8167C42.127 42.9915 43.3553 40.5962 45.1364 40.412C46.9175 40.2277 48.5758 42.3159 48.8829 45.1411C49.1899 47.9663 47.9002 50.3616 46.1191 50.5458Z" fill="white"/>
<path d="M67.067 41.5169C66.6985 36.3578 63.3206 32.3657 59.5127 32.6113C55.7048 32.857 52.9411 37.2791 53.3096 42.4381C53.6781 47.5972 57.056 51.5893 60.8639 51.3436C64.6718 51.098 67.497 46.6759 67.067 41.5169ZM60.5568 46.7373C58.8371 46.8602 57.3017 44.8948 57.1174 42.3767C56.9332 39.8586 58.2229 37.6476 59.9426 37.5247C61.6623 37.4019 63.1977 39.3673 63.382 41.8854C63.5048 44.4649 62.2765 46.6145 60.5568 46.7373Z" fill="white"/>
</svg>
