<svg width="40" height="40" viewBox="0 0 40 40" fill="none" xmlns="http://www.w3.org/2000/svg">
<path d="M20 40C31.0457 40 40 31.0457 40 20C40 8.95431 31.0457 0 20 0C8.95431 0 0 8.95431 0 20C0 31.0457 8.95431 40 20 40Z" fill="#F7579F"/>
<path d="M5.48047 15.4641L13.9529 31.905L15.0238 23.968L19.8112 29.9838L18.3939 12.1885L15.3072 12.9129L17.7324 24.7239L13.8269 19.842L13.1655 26.3302L8.53559 14.5192L5.48047 15.4641Z" fill="white"/>
<path d="M26.9578 22.8343C26.6744 19.9997 24.8791 17.8894 22.8948 18.0784C20.9106 18.2674 19.5563 20.7241 19.8397 23.5272C20.1232 26.3619 21.9185 28.4721 23.9027 28.2831C25.8555 28.0942 27.2413 25.669 26.9578 22.8343ZM23.6507 25.9209C22.7374 26.0154 21.887 24.9445 21.7295 23.4957C21.6035 22.0469 22.2334 20.8186 23.1468 20.7241C24.0602 20.6296 24.9106 21.7005 25.0681 23.1493C25.2255 24.5981 24.5641 25.8264 23.6507 25.9209Z" fill="white"/>
<path d="M34.3933 21.2907C34.2043 18.645 32.472 16.5978 30.5193 16.7238C28.5665 16.8498 27.1492 19.1175 27.3382 21.7632C27.5272 24.4088 29.2594 26.4561 31.2122 26.3301C33.165 26.2041 34.6138 23.9364 34.3933 21.2907ZM31.0547 23.9679C30.1728 24.0309 29.3854 23.023 29.2909 21.7317C29.1965 20.4403 29.8579 19.3065 30.7398 19.2435C31.6216 19.1805 32.409 20.1883 32.5035 21.4797C32.5665 22.8025 31.9366 23.9049 31.0547 23.9679Z" fill="white"/>
</svg>
