<svg width="50" height="40" viewBox="0 0 50 40" fill="none" xmlns="http://www.w3.org/2000/svg">
<path d="M21.4557 28.2774L19.5146 22.8669L29.5003 16L28.0003 21L21.4557 28.2774Z" fill="#71CDFF"/>
<path d="M32.094 14.3872L29.5071 27.3183C29.3119 28.2309 28.8029 28.458 28.0796 28.0282L24.1379 24.9495L22.236 26.8883C22.0256 27.1114 21.8495 27.298 21.4438 27.298L21.727 23.043L29.0325 16.0462C29.3502 15.746 28.9637 15.5797 28.5389 15.8799L19.5074 21.9073L15.6193 20.6175C14.7736 20.3376 14.7583 19.7211 15.7953 19.2912L31.0033 13.0811C31.7074 12.8013 32.3236 13.2474 32.094 14.3872Z" fill="#0FA8FB"/>
<rect x="0.5" y="0.5" width="49" height="39" rx="19.5" stroke="#40BBFD" stroke-opacity="0.3"/>
</svg>
