<svg width="50" height="40" viewBox="0 0 50 40" fill="none" xmlns="http://www.w3.org/2000/svg">
<path d="M25.5032 11C20.2632 11 16.0019 15.2598 16 20.4957C15.9974 22.2837 16.5009 24.0358 17.4523 25.5496L16.7184 29.413L20.661 28.6759C22.1192 29.5413 23.7911 29.9989 25.496 29.9998H25.4996C30.7355 29.9998 34.9969 25.7396 34.9989 20.5034C35.0028 19.2553 34.7592 18.0189 34.2821 16.8657C33.8049 15.7124 33.1037 14.6653 32.2192 13.7849C31.3395 12.8997 30.2929 12.1977 29.1401 11.7197C27.9873 11.2417 26.7512 10.9971 25.5032 11Z" fill="#14C425"/>
<path fill-rule="evenodd" clip-rule="evenodd" d="M22.9527 16.5828C22.7616 16.2013 22.5605 16.1936 22.379 16.187L21.8902 16.1816C21.7202 16.1816 21.4439 16.239 21.2104 16.4683C20.9768 16.6976 20.3179 17.2517 20.3179 18.3789C20.3179 19.5061 21.2316 20.5952 21.3589 20.7482C21.4862 20.9013 23.1228 23.2881 25.7145 24.2064C27.8683 24.9695 28.3065 24.8177 28.7742 24.7796C29.2419 24.7415 30.2827 24.2254 30.4951 23.6904C30.7074 23.1555 30.7076 22.6971 30.6439 22.6013C30.5802 22.5055 30.4102 22.4485 30.155 22.3339C29.8998 22.2192 28.6465 21.665 28.4128 21.5885C28.1791 21.512 28.0092 21.474 27.839 21.7033C27.6688 21.9326 27.1808 22.4484 27.0319 22.6013C26.8831 22.7542 26.7346 22.7734 26.4794 22.6589C26.2242 22.5443 25.4031 22.3023 24.429 21.5219C23.671 20.9146 23.1594 20.1647 23.0104 19.9355C22.8615 19.7063 22.9946 19.5822 23.1225 19.468C23.2369 19.3654 23.3774 19.2005 23.5051 19.0668C23.6329 18.9331 23.6749 18.8375 23.7598 18.6848C23.8447 18.5322 23.8024 18.3981 23.7386 18.2836C23.6748 18.169 23.1794 17.036 22.9527 16.5829" fill="white"/>
<rect x="0.5" y="0.5" width="49" height="39" rx="19.5" stroke="#14C325" stroke-opacity="0.3"/>
</svg>
